<?xml version="1.0" encoding="utf-8"?>
<!-- Svg Vector Icons : http://www.onlinewebfonts.com/icon -->
<!DOCTYPE svg PUBLIC "-//W3C//DTD SVG 1.1//EN" "http://www.w3.org/Graphics/SVG/1.1/DTD/svg11.dtd">
<svg version="1.1" xmlns="http://www.w3.org/2000/svg" xmlns:xlink="http://www.w3.org/1999/xlink" x="0px" y="0px" viewBox="0 0 1000 1000" enable-background="new 0 0 1000 1000" xml:space="preserve">
<metadata> Svg Vector Icons : http://www.onlinewebfonts.com/icon </metadata>
<g><g><g><path d="M961.9,541.1c49.6-49.4,34.3-149.4-51.7-149.4l-226.3,0.2c8.6-47.9,21-127.3,20.5-134.8c-4.8-71-50-157.5-52-161c-8.3-15.4-49.9-36.2-91.9-27.3c-54.2,11.6-59.8,46.2-59.6,55.8c0,0,2.3,94.7,2.6,119.9c-25.9,57-115.4,206.6-142.5,218.2c-6.5-3.9-13.8-6-21.5-6H53.8c-24.3,0-43.8,19.6-43.8,43.8l0,395.1c1.7,21.3,19.8,38,41.2,38H308c22.8,0,41.3-18.5,41.3-41.3V879c0,0,9.5-0.7,13.9,2.1c16.5,10.5,36.9,23.7,63.5,23.7h383.1c143.2,0,127.9-127.1,114.8-144.5c24.2-26.4,39.2-72.8,18.7-109.5C959,634.1,986.6,588.4,961.9,541.1z M299.1,892.1h-248V497.8h248V892.1z M895,537.7l-2.3,9.8c66,18.8,30.9,94.8-16.5,99.8l-2.3,9.8c63.3,16.1,33.1,94.4-16.5,99.8l-2.3,9.7c51.7,8.5,39.2,96.7-39.1,96.7l-389.7,0.2c-27.5,0-52.6-31.4-72.8-31.4h-17.7V528.5c22-13.6,49.1-31.4,64.1-44.1c28.4-24.2,144.8-212.2,144.8-235.8S542,123.3,542,123.3s22.8-29.4,73.7-8c0,0,42.9,80.4,47.2,144.4c0,0-19.3,131.9-29.7,173.3h270.2C969.9,433.2,957.2,527.9,895,537.7z"/></g></g><g></g><g></g><g></g><g></g><g></g><g></g><g></g><g></g><g></g><g></g><g></g><g></g><g></g><g></g><g></g></g>
</svg>